HIERARCHY
ROOT root
{
	OFFSET	0	13.1	24.9
	CHANNELS 6  Xposition Yposition Zposition Xrotation Yrotation Zrotation
	JOINT spine_1
	{
		OFFSET	0	9.99999	0
		CHANNELS 3  Xrotation Yrotation Zrotation
		JOINT spine_2
		{
			OFFSET	0	112	-10
			CHANNELS 3  Xrotation Yrotation Zrotation
			JOINT spine_3
			{
				OFFSET	0	206.5	19.3
				CHANNELS 3  Xrotation Yrotation Zrotation
				JOINT spine_4
				{
					OFFSET	0	110.4	14.6
					CHANNELS 3  Xrotation Yrotation Zrotation
					JOINT neck_1
					{
						OFFSET	0	71.8	-50.3
						CHANNELS 3  Xrotation Yrotation Zrotation
						JOINT neck_2
						{
							OFFSET	0	86.2	-25.8
							CHANNELS 3  Xrotation Yrotation Zrotation
							JOINT head_ee
							{
								OFFSET	0	179.8	-8.7
								CHANNELS 3  Xrotation Yrotation Zrotation
								End Site
								{
									OFFSET	1	0	0
								}
							}
						}
					}
					JOINT left_clavicle
					{
						OFFSET	-43.2	22.4	-70.8
						CHANNELS 3  Xrotation Yrotation Zrotation
						JOINT left_shoulder
						{
							OFFSET	-93.9	-5.79999	48.7
							CHANNELS 3  Xrotation Yrotation Zrotation
							JOINT left_elbow
							{
								OFFSET	-291.4	-30.8	15.2
								CHANNELS 3  Xrotation Yrotation Zrotation
								JOINT left_lowarm_twist
								{
									OFFSET	-110.7	-3.89999	13.6
									CHANNELS 3  Xrotation Yrotation Zrotation
									JOINT left_hand
									{
										OFFSET	-110.7	-3.89999	13.6
										CHANNELS 3  Xrotation Yrotation Zrotation
										JOINT left_ee
										{
											OFFSET	-80.8	-5.10001	12.1
											CHANNELS 3  Xrotation Yrotation Zrotation
											End Site
											{
												OFFSET	1	0	0
											}
										}
									}
								}
							}
						}
					}
					JOINT right_clavicle
					{
						OFFSET	43.2	22.4	-70.8
						CHANNELS 3  Xrotation Yrotation Zrotation
						JOINT right_shoulder
						{
							OFFSET	93.9	-5.79999	48.7
							CHANNELS 3  Xrotation Yrotation Zrotation
							JOINT right_elbow
							{
								OFFSET	291.4	-30.8	15.2
								CHANNELS 3  Xrotation Yrotation Zrotation
								JOINT right_lowarm_twist
								{
									OFFSET	110.7	-3.89999	13.6
									CHANNELS 3  Xrotation Yrotation Zrotation
									JOINT right_hand
									{
										OFFSET	110.7	-3.89999	13.6
										CHANNELS 3  Xrotation Yrotation Zrotation
										JOINT right_ee
										{
											OFFSET	80.8	-5.10001	12.1
											CHANNELS 3  Xrotation Yrotation Zrotation
											End Site
											{
												OFFSET	1	0	0
											}
										}
									}
								}
							}
						}
					}
				}
			}
		}
	}
	JOINT left_hip
	{
		OFFSET	-82.8	-127.5	0.300001
		CHANNELS 3  Xrotation Yrotation Zrotation
		JOINT left_knee
		{
			OFFSET	-28.2	-396.7	2.2
			CHANNELS 3  Xrotation Yrotation Zrotation
			JOINT left_ankle
			{
				OFFSET	-11.7	-411.3	35.4
				CHANNELS 3  Xrotation Yrotation Zrotation
				JOINT left_toes
				{
					OFFSET	0	-60	-88.6
					CHANNELS 3  Xrotation Yrotation Zrotation
					JOINT left_foot_ee
					{
						OFFSET	-22.5	-16.5	-42.2
						CHANNELS 3  Xrotation Yrotation Zrotation
						End Site
						{
							OFFSET	1	0	0
						}
					}
				}
			}
		}
	}
	JOINT right_hip
	{
		OFFSET	82.8	-127.5	0.300001
		CHANNELS 3  Xrotation Yrotation Zrotation
		JOINT right_knee
		{
			OFFSET	28.2	-396.7	2.2
			CHANNELS 3  Xrotation Yrotation Zrotation
			JOINT right_ankle
			{
				OFFSET	11.7	-411.3	35.4
				CHANNELS 3  Xrotation Yrotation Zrotation
				JOINT right_toes
				{
					OFFSET	0	-60	-88.6
					CHANNELS 3  Xrotation Yrotation Zrotation
					JOINT right_foot_ee
					{
						OFFSET	22.5	-16.5	-42.2
						CHANNELS 3  Xrotation Yrotation Zrotation
						End Site
						{
							OFFSET	1	0	0
						}
					}
				}
			}
		}
	}
}
MOTION
Frames: 10
Frame Time: 0.02
3574.42 741.953 -1474.73 -41.2708055983 80.7345431758 33.3330069845 1.75227 0.89881 5.94405 1.77176 0.519448 5.98897 1.82678 -0.561463 5.98519 1.77704 0.389082 5.99882 -10.6145 17.3481 -8.68027 -11.0297 38.4275 -3.66306 -0.0 0.0 -0.0 -5.35745 17.0893 -6.35665 -8.52439 -32.9088 61.4462 1.11668 -28.9493 0.288275 -11.5803 -0.548836 1.3726 -0.897966 -4.85656 -8.13535 -0.0 0.0 -0.0 13.602 22.5038 -27.4477 -12.3073 18.0677 -73.1613 0.726273 19.7874 -0.126674 26.5831 -0.159261 3.36173 -3.62642 -14.3267 16.9843 0.0 0.0 0.0 1.38725 31.9867 1.62261 -10.9194 0.293339 1.64756 15.0572 -2.93565 -2.13556 18.2676 -0.0 -0.0 -0.0 0.0 -0.0 9.33326 8.86552 8.06318 -5.62829 -0.190475 -0.842429 31.1522 31.63 5.05489 -18.9546 0.0 0.0 0.0 0.0 0.0 
3571.77813395 741.421 -1471.57824751 -31.6366011673 78.3712652154 23.5944211992 1.74531 0.976702 6.06479 1.76557 0.589544 6.11439 1.82936 -0.514396 6.12115 1.77741 0.456916 6.12569 -10.5398 17.5512 -8.01774 -10.9794 38.3793 -2.97625 -0.0 0.0 -0.0 -5.62103 18.2561 -6.46128 -8.16072 -31.7872 61.3595 1.15963 -29.8741 0.309368 -11.5648 -0.547919 1.37084 -0.931676 -4.7392 -8.31361 -0.0 0.0 -0.0 13.4426 21.9093 -27.1276 -11.66 18.1598 -73.634 0.664218 18.2131 -0.106469 26.4677 -0.161954 3.34723 -3.60747 -13.4533 17.3697 0.0 0.0 0.0 0.690188 31.6604 2.15021 -11.4692 0.299752 1.73167 15.1543 -2.69116 -2.14677 17.496 -0.0 -0.0 -0.0 0.0 -0.0 9.49665 8.17137 8.32265 -7.40068 -0.233213 -1.11105 31.8224 30.1836 5.04213 -18.9741 0.0 0.0 0.0 0.0 0.0 
3571.50852912 743.6 -1469.84657525 -24.9636019971 76.5915648165 16.6220918199 1.60877 0.990903 5.94497 1.62821 0.611299 5.99572 1.69383 -0.485802 6.00715 1.64382 0.467252 6.00862 -9.44375 17.7056 -7.71431 -9.6792 38.4657 -3.09118 -0.0 0.0 -0.0 -5.77704 18.1722 -6.72771 -7.38184 -30.3725 61.4601 1.30411 -32.8615 0.384596 -12.0147 -0.574763 1.42178 -1.14397 -3.82356 -9.35822 -0.0 0.0 -0.0 13.3184 22.9239 -26.7445 -10.7836 18.5324 -74.34 0.561134 15.5345 -0.0765395 25.9437 -0.173813 3.28134 -3.75161 -13.6174 18.2276 0.0 0.0 0.0 -0.725671 30.1948 3.10965 -11.0255 0.29464 1.6638 13.1127 -3.56421 -1.87886 16.9745 -0.0 -0.0 -0.0 0.0 -0.0 10.4636 7.81403 8.30181 -8.74192 -0.260018 -1.31512 33.0947 30.6526 5.2239 -18.3271 0.0 0.0 0.0 0.0 0.0 
3570.39340425 746.487 -1469.06069434 -20.210469239 73.5560536905 11.7741993811 1.63241 0.922019 6.07362 1.65276 0.534411 6.11975 1.71127 -0.582567 6.11537 1.65934 0.388683 6.13069 -10.1731 17.9617 -7.00969 -10.6 38.4909 -2.0088 -0.0 0.0 -0.0 -6.23171 19.1202 -7.16588 -6.66459 -29.8596 61.574 1.32453 -33.2685 0.395737 -11.0744 -0.519123 1.31511 -0.963662 -4.09454 -8.24925 -0.0 0.0 -0.0 13.4697 23.0863 -27.0823 -10.5755 19.1108 -74.3673 0.527623 14.6478 -0.0678143 26.3394 -0.164912 3.33111 -3.64221 -12.4551 18.1815 0.0 0.0 0.0 -1.77292 31.2506 3.96224 -9.88711 0.279117 1.48981 14.1379 -1.66444 -2.00521 15.4231 -0.0 -0.0 -0.0 0.0 -0.0 10.4518 10.2213 8.28202 -10.9856 -0.294153 -1.65769 29.9893 29.1593 4.75551 -18.2107 0.0 0.0 0.0 0.0 0.0 
3568.07812677 747.902 -1470.20876743 -17.2605321761 70.942529235 8.65935093104 1.66359 0.864945 6.04048 1.68374 0.479548 6.08306 1.73582 -0.627543 6.06963 1.68461 0.337082 6.09258 -9.74909 18.1693 -6.25748 -10.1242 38.3752 -1.38266 -0.0 0.0 -0.0 -6.50866 19.4422 -7.49754 -5.37354 -28.4618 61.8119 1.32875 -33.3521 0.398054 -10.9817 -0.513732 1.30454 -0.749346 -3.74413 -6.64152 -0.0 0.0 -0.0 13.0041 23.6993 -25.9374 -9.76011 19.5686 -76.2436 0.386789 10.8468 -0.036722 25.4626 -0.184168 3.22076 -3.74749 -11.3633 19.5278 0.0 0.0 0.0 -2.37821 31.1943 4.25311 -9.24421 0.268825 1.39169 13.3403 -0.580653 -1.89275 14.3422 -0.0 -0.0 -0.0 0.0 -0.0 10.6126 12.3886 8.44647 -13.3355 -0.315497 -2.01759 28.646 26.9786 4.46934 -17.0492 0.0 0.0 0.0 0.0 0.0 
3560.72750002 745.183 -1470.15118527 -14.2007391234 68.8384453421 5.10877385956 1.69096 0.77579 6.03229 1.7111 0.391091 6.06925 1.7534 -0.710663 6.04028 1.70261 0.250385 6.07665 -9.61798 18.8783 -4.28591 -10.051 38.396 0.710218 -0.0 0.0 -0.0 -7.23666 21.6514 -7.90512 -4.72676 -27.2763 62.2406 1.55168 -37.5453 0.527437 -12.0235 -0.575288 1.42276 -0.73256 -2.49048 -5.98254 -0.0 0.0 -0.0 12.3012 21.9593 -24.4735 -9.21413 19.5634 -77.343 0.306536 8.63452 -0.0231414 25.0605 -0.192433 3.17006 -3.72104 -10.6105 19.7869 0.0 0.0 0.0 -3.29678 30.6146 4.85278 -10.5104 0.288045 1.58503 15.009 -0.657059 -2.11533 13.032 -0.0 -0.0 -0.0 0.0 -0.0 10.985 13.3617 8.67968 -17.3754 -0.317649 -2.6373 30.6988 25.257 4.63297 -16.8889 0.0 0.0 0.0 0.0 0.0 
3554.17661058 743.886 -1470.92905474 -11.6369154925 66.2104838275 2.31481598727 1.68302 0.571714 5.95217 1.70269 0.192494 5.97638 1.72335 -0.893308 5.9126 1.67461 0.0499544 5.97926 -8.99434 19.1672 -3.8379 -9.32388 38.5919 0.974819 -0.0 0.0 -0.0 -7.76128 23.5412 -8.03119 -4.50605 -25.9613 62.4131 1.73334 -40.6474 0.642041 -11.5921 -0.549536 1.37394 -0.711751 -2.42215 -5.81235 -0.0 0.0 -0.0 12.1671 21.5683 -24.1977 -9.5689 20.654 -77.1955 0.226816 6.4109 -0.0127027 24.2924 -0.20723 3.07306 -3.6673 -9.96748 19.7912 0.0 0.0 0.0 -3.99764 30.2563 5.12208 -11.755 0.302767 1.77543 14.8383 -0.21664 -2.09053 12.26 -0.0 -0.0 -0.0 0.0 -0.0 10.8262 13.137 8.65406 -18.2876 -0.312088 -2.77714 31.4089 22.7895 4.60111 -17.154 0.0 0.0 0.0 0.0 0.0 
3554.19991524 745.104 -1472.88658682 -10.745007287 63.9688225759 1.5258061341 1.77089 0.612771 5.85638 1.78993 0.239531 5.88339 1.81472 -0.820533 5.83099 1.76733 0.109006 5.88724 -10.337 19.3024 -2.97199 -10.9521 38.3865 2.41406 -0.0 0.0 -0.0 -7.44601 22.124 -8.05788 -4.20729 -24.9812 62.7745 1.63119 -38.9366 0.576653 -11.253 -0.529553 1.33543 -0.73931 -1.67489 -5.67294 -0.0 0.0 -0.0 12.1124 21.8363 -24.0498 -9.83459 21.1994 -77.5182 0.236171 6.67298 -0.0137685 24.0381 -0.21184 3.04091 -3.65338 -10.04 19.6542 0.0 0.0 0.0 -4.44735 29.8666 5.66245 -12.5151 0.309723 1.89184 14.7999 0.0521438 -2.08414 11.9828 -0.0 -0.0 -0.0 0.0 -0.0 10.9504 11.3295 8.51657 -17.6386 -0.316273 -2.67765 31.4715 22.1512 4.58071 -16.6067 0.0 0.0 0.0 0.0 0.0 
3550.75782784 744.504 -1475.52630935 -9.68429363901 61.6441542224 0.506226716008 1.78817 0.558941 5.7226 1.80635 0.194279 5.74646 1.82589 -0.839442 5.68833 1.78078 0.0679177 5.74934 -9.90619 19.452 -2.57649 -10.4448 38.3712 2.66459 -0.0 0.0 -0.0 -7.66112 23.3893 -7.94036 -2.96592 -22.39 63.225 1.72732 -40.5488 0.638118 -11.746 -0.558685 1.39139 -0.952921 -1.37673 -6.98291 -0.0 0.0 -0.0 12.1549 21.9906 -24.1343 -9.96885 21.9027 -77.4565 0.202429 5.72647 -0.0101245 23.5514 -0.220271 2.9793 -3.64606 -9.89038 19.6901 0.0 0.0 0.0 -4.24493 29.485 5.85474 -13.6064 0.317008 2.05913 13.9615 0.498006 -1.97092 11.5238 -0.0 -0.0 -0.0 0.0 -0.0 10.3715 12.0972 8.09568 -17.7654 -0.315544 -2.69709 32.011 21.3788 4.60891 -15.8721 0.0 0.0 0.0 0.0 0.0 
3551.92812652 744.473 -1476.54276782 -8.48030188873 57.7216028956 -0.41707348094 1.76392 0.623551 5.61345 1.7814 0.265669 5.64163 1.80783 -0.75174 5.59777 1.76416 0.140298 5.64613 -10.0329 19.8025 -1.84626 -10.6185 38.5659 3.52972 -0.0 0.0 -0.0 -7.70357 23.3869 -8.00209 -3.59964 -22.4642 62.8464 1.81911 -42.0191 0.698688 -11.8672 -0.565916 1.4051 -1.03952 -0.63982 -7.24206 -0.0 0.0 -0.0 12.2406 22.8383 -24.2562 -10.2934 23.1117 -77.386 0.212378 6.0059 -0.0111413 23.0605 -0.228241 2.91711 -3.52155 -9.66859 18.965 0.0 0.0 0.0 -3.9191 29.434 6.44914 -13.9374 0.318587 2.10989 11.0762 1.92259 -1.57676 11.0462 -0.0 -0.0 -0.0 0.0 -0.0 10.0198 13.4185 7.54044 -17.1115 -0.318842 -2.59682 31.6431 20.1454 4.51901 -15.7299 0.0 0.0 0.0 0.0 0.0 
